HIERARCHY
ROOT Hips
{
	OFFSET -0.179506 -22.333345 2.821913
	CHANNELS 6 Xposition Yposition Zposition Zrotation Yrotation Xrotation 
	JOINT LeftUpLeg
	{
		OFFSET 6.951974 -9.140623 -0.681533
		CHANNELS 3 Zrotation Yrotation Xrotation
		JOINT LeftLeg
		{
			OFFSET 3.427654 -37.519855 -0.449580
			CHANNELS 3 Zrotation Yrotation Xrotation
			JOINT LeftFoot
			{
				OFFSET -1.359570 -39.796059 -4.369333
				CHANNELS 3 Zrotation Yrotation Xrotation
				JOINT LeftToe
				{
					OFFSET 2.635814 -5.579078 11.928840
					CHANNELS 3 Zrotation Yrotation Xrotation
					End Site
					{
						OFFSET 0.000000 0.000000 0.000000
					}
				}
			}
		}
	}
	JOINT RightUpLeg
	{
		OFFSET -6.767048 -9.052170 -0.431982
		CHANNELS 3 Zrotation Yrotation Xrotation
		JOINT RightLeg
		{
			OFFSET -3.829005 -38.256897 -0.885003
			CHANNELS 3 Zrotation Yrotation Xrotation
			JOINT RightFoot
			{
				OFFSET 1.577377 -39.841461 -4.231180
				CHANNELS 3 Zrotation Yrotation Xrotation
				JOINT RightToe
				{
					OFFSET -2.537174 -4.814398 12.334795
					CHANNELS 3 Zrotation Yrotation Xrotation
					End Site
					{
						OFFSET 0.000000 0.000000 0.000000
					}
				}
			}
		}
	}
	JOINT Spine
	{
		OFFSET -0.253288 10.896323 -2.669631
		CHANNELS 3 Zrotation Yrotation Xrotation
		JOINT Spine1
		{
			OFFSET 0.548704 13.518043 0.109247
			CHANNELS 3 Zrotation Yrotation Xrotation
			JOINT Spine2
			{
				OFFSET 0.145701 5.292222 2.542457
				CHANNELS 3 Zrotation Yrotation Xrotation
				JOINT Neck
				{
					OFFSET -0.277840 21.387037 -4.285703
					CHANNELS 3 Zrotation Yrotation Xrotation
					JOINT Head
					{
						OFFSET 0.515184 6.496960 5.134897
						CHANNELS 3 Zrotation Yrotation Xrotation
						End Site
						{
							OFFSET 0.000000 0.000000 0.000000
						}
					}
				}
				JOINT LeftShoulder
				{
					OFFSET 7.884473 12.174932 -3.408961
					CHANNELS 3 Zrotation Yrotation Xrotation
					JOINT LeftArm
					{
						OFFSET 9.097692 3.046888 -0.886815
						CHANNELS 3 Zrotation Yrotation Xrotation
						JOINT LeftForeArm
						{
							OFFSET 25.961220 -1.277207 -2.745643
							CHANNELS 3 Zrotation Yrotation Xrotation
							JOINT LeftHand
							{
								OFFSET 24.923361 0.898606 -0.117091
								CHANNELS 3 Zrotation Yrotation Xrotation
								End Site
								{
									OFFSET 0.000000 0.000000 0.000000
								}
							}
						}
					}
				}
				JOINT RightShoulder
				{
					OFFSET -8.175920 11.883285 -3.861528
					CHANNELS 3 Zrotation Yrotation Xrotation
					JOINT RightArm
					{
						OFFSET -9.601238 3.255117 -0.914307
						CHANNELS 3 Zrotation Yrotation Xrotation
						JOINT RightForeArm
						{
							OFFSET -25.374195 -1.332924 -2.140099
							CHANNELS 3 Zrotation Yrotation Xrotation
							JOINT RightHand
							{
								OFFSET -25.529810 0.777228 -0.555919
								CHANNELS 3 Zrotation Yrotation Xrotation
								End Site
								{
									OFFSET 0.000000 0.000000 0.000000
								}
							}
						}
					}
				}
			}
		}
	}
}
MOTION
Frames: 6
Frame Time: 0.033333
267.257141 -250.181061 93.529305 146.401140 0.676228 85.245282 -1.213728 1.192624 11.241848 3.886608 -13.025970 -0.969133 4.241761 7.799878 -8.642189 nan nan nan 0.020793 -2.697085 2.363941 -0.154856 2.462586 8.732694 7.370833 -2.101991 -4.495136 nan nan nan 2.142863 1.223186 8.451957 1.568502 -0.775070 4.119533 1.866772 -0.277654 -1.347094 0.476748 9.526430 3.586428 0.743294 8.132480 -4.032846 -24.509298 -1.854354 3.758852 -57.905190 -5.895998 8.176349 4.185145 -21.370881 5.887123 -10.388904 -0.372642 -8.721862 24.249112 3.623061 1.548850 53.655508 9.025178 11.818137 -6.758782 20.202636 0.092535 13.646741 -0.842453 -6.796437 
267.290192 -250.197479 93.510590 146.351450 0.672147 85.367597 -1.097130 1.197693 10.859964 3.568162 -13.149455 -0.441912 4.290137 7.859713 -8.954254 nan nan nan 0.018535 -2.501756 2.118222 -0.100402 2.476389 8.974626 7.666708 -2.218606 -4.641130 nan nan nan 2.077484 1.296332 8.626946 1.508747 -0.726224 3.432795 1.976917 -0.318455 -0.867252 0.552548 9.467126 3.498031 0.675954 8.121689 -4.164583 -24.445139 -1.898972 3.724686 -57.999817 -5.997169 8.286565 4.387570 -21.561449 6.499920 -10.088641 0.085977 -8.054234 24.225554 3.672103 1.312664 53.870988 8.871456 11.981303 -7.320253 20.166293 0.449035 13.788897 -1.082675 -6.130616 
267.324097 -250.319992 93.524361 146.429520 0.623152 85.397219 -0.958624 1.066539 10.458592 3.199581 -13.125599 0.189530 4.256428 7.809434 -9.239778 nan nan nan 0.009516 -2.341571 1.896674 -0.079943 2.334733 9.266944 7.908306 -2.267730 -4.726729 nan nan nan 1.636683 1.402078 9.103019 1.652815 -0.736980 2.970434 2.226492 -0.375131 -0.799404 0.619044 9.461546 3.258797 0.688552 8.117387 -4.133298 -24.406309 -1.912518 3.733803 -57.993377 -6.113701 8.411628 4.516797 -21.890094 6.689221 -9.738961 0.132060 -7.860490 24.235103 3.602161 1.027070 53.973104 8.767415 12.142863 -7.448321 20.263379 0.245170 13.412630 -0.975131 -6.400316 
267.315308 -250.254776 93.543716 146.362101 0.568694 85.447679 -1.007027 1.061358 10.320984 3.042677 -13.120396 0.455573 4.325384 7.877815 -9.431053 nan nan nan -0.212146 -2.275391 1.776671 0.103178 2.313161 9.457415 8.124414 -2.217641 -4.809902 nan nan nan 1.598607 1.385324 9.085892 1.669998 -0.722902 2.876453 2.217214 -0.365963 -0.710296 0.658806 9.511777 3.237338 0.619032 8.175990 -4.158083 -24.446503 -1.885958 3.731747 -57.903329 -6.180081 8.476633 4.478025 -22.135307 6.631052 -9.547396 0.044818 -8.153706 24.235520 3.585094 0.968930 53.916982 8.768095 12.236018 -7.358473 20.384034 0.076757 13.072386 -0.938638 -6.748800 
267.322876 -250.167236 93.567360 146.303693 0.470818 85.482374 -1.088157 1.082218 10.180049 2.847819 -13.122426 0.797821 4.455474 7.960756 -9.550168 nan nan nan -0.433086 -2.216718 1.687145 0.236757 2.349420 9.669170 8.247429 -2.219458 -4.880844 nan nan nan 1.510611 1.360151 8.988952 1.678686 -0.709244 2.911971 2.219076 -0.363846 -0.670959 0.725824 9.564047 3.240467 0.541866 8.250775 -4.092740 -24.457389 -1.833016 3.717655 -57.859087 -6.228600 8.491893 4.438038 -22.367677 6.529397 -9.410709 0.033019 -8.548493 24.280263 3.577556 1.048205 53.821187 8.821950 12.347080 -7.355794 20.580174 0.104376 12.938681 -1.000991 -6.811736 
267.327148 -250.097183 93.587990 146.255954 0.381851 85.545095 -1.155650 1.164210 9.925926 2.657313 -13.130330 1.269330 4.499910 7.995473 -9.711266 nan nan nan -0.577899 -2.094002 1.537726 0.295377 2.409917 9.931279 8.375882 -2.277832 -5.080158 nan nan nan 1.396647 1.356528 8.872250 1.719423 -0.643799 3.047149 2.245229 -0.405216 -0.738068 0.772153 9.616260 3.219914 0.487746 8.253025 -3.986012 -24.453415 -1.758392 3.747028 -57.837501 -6.280872 8.487453 4.466715 -22.633669 6.469984 -9.406297 -0.035997 -8.758785 24.303479 3.535188 1.054294 53.749266 8.887330 12.447897 -7.336855 20.699404 0.209207 12.927227 -1.055593 -6.766185 
